<?xml version="1.0" encoding="utf-8"?>
<!-- Generator: Adobe Illustrator 16.0.0, SVG Export Plug-In . SVG Version: 6.00 Build 0)  -->
<!DOCTYPE svg PUBLIC "-//W3C//DTD SVG 1.1//EN" "http://www.w3.org/Graphics/SVG/1.1/DTD/svg11.dtd">
<svg version="1.1" id="Layer_1" xmlns="http://www.w3.org/2000/svg" xmlns:xlink="http://www.w3.org/1999/xlink" x="0px" y="0px"
	 width="120px" height="120px" viewBox="0 0 120 120" enable-background="new 0 0 120 120" xml:space="preserve">
<rect x="-2" y="-2" fill-rule="evenodd" clip-rule="evenodd" fill="#F0F0F0" width="124" height="124"/>
<path fill-rule="evenodd" clip-rule="evenodd" fill="#666666" d="M7.586,117.535c0.139-1.143,0.289-2.284,0.416-3.429
	c1.36-12.261,6.208-22.938,14.574-32c3.717-4.027,8.015-7.329,12.788-10.027c0.685-0.388,1.105-0.334,1.696,0.163
	c6.317,5.309,13.593,8.162,21.862,8.403c9.072,0.263,17.059-2.609,24.017-8.39c0.587-0.487,0.992-0.576,1.683-0.183
	c11.711,6.69,19.762,16.452,24.406,29.062c2.061,5.595,3.103,11.396,3.297,17.351c0.015,0.44,0.003,0.883,0.003,1.476
	c-0.457,0-0.852,0-1.248,0c-34.122,0-68.244,0-102.367,0.003c-0.375,0-0.751,0.024-1.126,0.036
	C7.586,119.179,7.586,118.358,7.586,117.535z"/>
<path fill-rule="evenodd" clip-rule="evenodd" fill="#666666" d="M60.009,16.075c15.165-0.129,28.96,12.001,29.004,28.927
	c0.041,16.537-13.185,29.221-29.278,29.09C43.387,73.96,31.003,60.645,31.012,45.297C31.021,28.944,43.777,16.093,60.009,16.075z"/>
</svg>
