<?xml version="1.0" encoding="utf-8"?>
<!-- Generator: Adobe Illustrator 16.0.0, SVG Export Plug-In . SVG Version: 6.00 Build 0)  -->
<!DOCTYPE svg PUBLIC "-//W3C//DTD SVG 1.1//EN" "http://www.w3.org/Graphics/SVG/1.1/DTD/svg11.dtd">
<svg version="1.1" id="Layer_1" xmlns="http://www.w3.org/2000/svg" xmlns:xlink="http://www.w3.org/1999/xlink" x="0px" y="0px"
	 width="39.479px" height="60px" viewBox="0 0 39.479 60" enable-background="new 0 0 39.479 60" xml:space="preserve">
<path fill-rule="evenodd" clip-rule="evenodd" d="M1.966,32.184c1.669,2.428,4.129,4.127,7.231,4.968
	c5.712,1.547,11.229,1.181,16.52-1.561c1.914-0.992,3.507-2.357,4.524-4.31c0.043-0.081,0.104-0.152,0.229-0.333
	c0.485,3.275-0.128,6.025-2.88,8.059c2.174-0.215,4.232-0.715,6.246-1.38c2.023-0.67,4.037-1.389,5.643-3.019
	c-0.037,0.387-0.086,0.772-0.105,1.16c-0.121,2.294-1.295,3.84-3.295,4.907c-2.521,1.349-5.221,2.134-7.991,2.727
	c-3.622,0.774-7.288,1.174-10.994,1.075c-4.324-0.113-8.424-1.077-12.091-3.471c-2.201-1.436-3.928-3.288-4.579-5.924
	c-0.173-0.7-0.186-1.444-0.222-2.171c-0.081-1.63-0.121-3.261-0.195-4.892c-0.079-1.715,0.555-3.16,1.668-4.414
	c1.662-1.871,3.803-2.993,6.15-3.706c5.666-1.722,11.264-1.564,16.731,0.828c1.71,0.749,3.208,1.812,4.374,3.306
	c1.673,2.142,1.768,4.722,0.222,6.959c-1.115,1.614-2.669,2.704-4.413,3.524c-3.599,1.692-7.408,2.228-11.351,1.968
	c-2.949-0.195-5.794-0.818-8.395-2.258C3.863,33.604,2.841,32.782,1.966,32.184z M15.351,30.825
	c0.663-0.098,1.335-0.155,1.986-0.303c0.946-0.216,1.831-0.59,2.521-1.31c0.874-0.91,0.899-2.031,0.002-2.917
	c-0.388-0.383-0.872-0.705-1.367-0.933c-1.532-0.705-3.146-0.803-4.791-0.493c-1.095,0.206-2.114,0.586-2.911,1.402
	c-0.876,0.899-0.896,2.033-0.009,2.92c0.359,0.359,0.806,0.66,1.263,0.886C13.077,30.589,14.194,30.773,15.351,30.825z
	 M2.429,29.428c0.043,0.194,2.184,2.881,3.619,3.742c0.181,0.108,0.623,0.054,0.766-0.097c0.843-0.886,1.673-1.791,2.425-2.753
	c0.415-0.53,0.276-0.786-0.428-0.831c-1.531-0.099-3.067-0.143-4.602-0.175C3.641,29.302,3.071,29.384,2.429,29.428z M19.315,34.966
	c-0.212-0.315-0.29-0.502-0.427-0.622c-0.965-0.842-1.932-1.683-2.919-2.499c-0.467-0.386-0.992-0.333-1.42,0.057
	c-0.92,0.836-1.811,1.705-2.702,2.572c-0.122,0.119-0.177,0.306-0.336,0.59C14.16,35.337,16.659,35.357,19.315,34.966z
	 M11.428,20.295c0.227,0.328,0.308,0.512,0.444,0.632c0.948,0.836,1.9,1.667,2.866,2.482c0.526,0.443,1.082,0.373,1.565-0.067
	c0.878-0.8,1.734-1.625,2.586-2.454c0.142-0.138,0.216-0.345,0.413-0.671C16.642,19.959,14.124,19.938,11.428,20.295z M28.13,26.101
	c-0.032-0.174-0.022-0.283-0.07-0.352c-0.937-1.361-2.092-2.503-3.509-3.355c-0.17-0.102-0.587-0.056-0.717,0.083
	c-0.873,0.934-1.716,1.897-2.53,2.884c-0.294,0.356-0.15,0.643,0.332,0.706c0.152,0.02,0.303,0.065,0.455,0.068
	c1.65,0.04,3.3,0.084,4.95,0.103C27.393,26.243,27.748,26.152,28.13,26.101z M4.977,26.271c0.001,0.033,2.53-0.1,3.787-0.244
	c0.615-0.07,0.74-0.324,0.333-0.792C8.255,24.271,7.34,23.37,6.44,22.458c-0.248-0.251-0.541-0.226-0.833-0.014
	c-1.21,0.875-2.251,1.918-3.098,3.145c-0.329,0.476-0.232,0.657,0.336,0.677C3.555,26.29,4.267,26.271,4.977,26.271z M25.268,29.305
	c-0.001-0.033-2.569,0.092-3.848,0.23c-0.647,0.07-0.783,0.334-0.362,0.818c0.828,0.952,1.722,1.85,2.636,2.721
	c0.153,0.146,0.622,0.157,0.811,0.031c1.243-0.828,2.269-1.895,3.116-3.122c0.294-0.426,0.188-0.639-0.335-0.669
	C26.616,29.275,25.941,29.305,25.268,29.305z"/>
</svg>
