<?xml version="1.0" encoding="utf-8"?>
<!-- Generator: Adobe Illustrator 16.0.0, SVG Export Plug-In . SVG Version: 6.00 Build 0)  -->
<!DOCTYPE svg PUBLIC "-//W3C//DTD SVG 1.1//EN" "http://www.w3.org/Graphics/SVG/1.1/DTD/svg11.dtd">
<svg version="1.1" id="Layer_1" xmlns="http://www.w3.org/2000/svg" xmlns:xlink="http://www.w3.org/1999/xlink" x="0px" y="0px"
	 width="40px" height="40px" viewBox="0 0 40 40" enable-background="new 0 0 40 40" xml:space="preserve">
<path fill="#FFFFFF" d="M17.839,9.895c0.046,0,0.092,0,0.139,0c0.03,0.008,0.06,0.021,0.091,0.023
	c0.258,0.019,0.517,0.028,0.774,0.053c0.935,0.091,1.819,0.359,2.662,0.769c1.286,0.627,2.341,1.531,3.161,2.702
	c0.723,1.03,1.18,2.17,1.382,3.412c0.119,0.735,0.131,1.472,0.053,2.211c-0.063,0.595-0.195,1.174-0.388,1.74
	c-0.207,0.604-0.494,1.172-0.822,1.719c-0.07,0.115-0.066,0.214,0.033,0.309c0.034,0.031,0.063,0.066,0.097,0.099
	c0.684,0.686,1.368,1.372,2.054,2.057c0.567,0.567,1.138,1.132,1.704,1.7c0.434,0.434,0.864,0.872,1.296,1.309
	c0,0.01,0,0.018,0,0.027c-0.018,0.013-0.039,0.023-0.055,0.038c-0.379,0.381-0.757,0.763-1.139,1.142
	c-0.351,0.351-0.706,0.697-1.06,1.045c-0.018,0-0.037,0-0.056,0c-0.023-0.021-0.047-0.044-0.069-0.065
	c-0.806-0.804-1.611-1.606-2.416-2.411c-0.865-0.864-1.729-1.73-2.594-2.599c-0.161-0.162-0.248-0.174-0.445-0.05
	c-0.055,0.034-0.109,0.064-0.163,0.096c-0.803,0.459-1.649,0.803-2.566,0.947c-0.427,0.067-0.857,0.134-1.289,0.155
	c-0.6,0.028-1.197-0.041-1.791-0.15c-0.595-0.109-1.168-0.287-1.72-0.528c-0.938-0.409-1.772-0.976-2.506-1.697
	c-0.843-0.828-1.473-1.794-1.908-2.887c-0.309-0.775-0.481-1.58-0.54-2.412c-0.055-0.786,0.001-1.562,0.17-2.33
	c0.226-1.033,0.637-1.987,1.236-2.858c0.711-1.034,1.611-1.866,2.704-2.484c1.203-0.68,2.494-1.042,3.878-1.059
	C17.779,9.918,17.809,9.903,17.839,9.895z M23.128,18.125c0.035-2.796-2.278-5.257-5.305-5.191c-2.778,0.06-5.098,2.32-5.067,5.258
	c0.03,2.795,2.285,5.2,5.339,5.125C20.927,23.247,23.149,20.915,23.128,18.125z"/>
</svg>
